<svg xmlns="http://www.w3.org/2000/svg" viewBox="0 0 16 16" fill="#000000" id="Hands-Praying-Thin--Streamline-Phosphor-Thin" height="16" width="16">
  <desc>
    Hands Praying Thin Streamline Icon: https://streamlinehq.com
  </desc>
  <path d="m15.313275 12.1169875 -2.589825 -2.589825 -2.568825 -8.484125c-0.27775 -0.91631875 -1.44329375 -1.1883375 -2.09796875 -0.4896375 -0.01981875 0.02115 -0.03889375 0.0429875 -0.05718125 0.06546875 -0.60428125 -0.74271875 -1.785975 -0.55276875 -2.12705 0.3419125 -0.010325 0.02708125 -0.0197 0.05451875 -0.02810625 0.08225625l-2.572325 8.487625 -2.586325 2.589825c-0.32939375 0.32825625 -0.32939375 0.86166875 0 1.18991875l2.28814375 2.28255c0.32825 0.32939375 0.86166875 0.32939375 1.18991875 0l3.37936875 -3.380075c0.18420625 -0.18366875 0.3388625 -0.39475625 0.45846875 -0.62575625 0.1196125 0.231 0.2742625 0.4420875 0.45846875 0.62575625l3.379375 3.380075c0.32825 0.32939375 0.86166875 0.32939375 1.18991875 0l2.28814375 -2.28815c0.3268375 -0.32916875 0.32495625 -0.8609625 -0.0042 -1.18781875ZM3.76405625 15.19678125c-0.1093625 0.1094875 -0.28680625 0.1094875 -0.39616875 0l-2.28605 -2.28744375c-0.10948125 -0.10936875 -0.10948125 -0.2868125 0 -0.396175l1.08563125 -1.084225 2.68221875 2.68221875Zm3.380075 -3.37936875 -1.896875 1.89756875 -2.68361875 -2.68361875 1.153525 -1.15421875c0.0327875 -0.0324625 0.0568625 -0.0726625 0.06999375 -0.11689375l2.589825 -8.55481875c0.14526875 -0.50655625 0.78441875 -0.66589375 1.15046875 -0.2868125 0.1256625 0.13013125 0.19470625 0.3047125 0.19204375 0.48559375v9.0293875c0.00094375 0.51936875 -0.20569375 1.01758125 -0.5739625 1.38380625Zm1.13391875 -1.38590625V1.4021125c-0.00025 -0.52696875 0.57005 -0.8566 1.02655 -0.59333125 0.1507375 0.08693125 0.2627125 0.22800625 0.3131625 0.39455l2.589825 8.55481875c0.01313125 0.04423125 0.03720625 0.08443125 0.06999375 0.11689375l1.21651875 1.2165125 -2.7424125 2.625525 -1.898275 -1.89966875c-0.36878125 -0.36674375 -0.57546875 -0.8658125 -0.5739625 -1.38590625Zm6.63765625 2.47783125 -2.28745 2.28744375c-0.1093625 0.1094875 -0.28680625 0.1094875 -0.39616875 0l-1.08283125 -1.081425 2.74241875 -2.625525 1.02263125 1.02333125c0.1102625 0.1085875 0.1115125 0.2860375 0.0028 0.396175Z" stroke-width="0.0625"></path>
</svg>